<svg xmlns="http://www.w3.org/2000/svg" viewBox="0 0 256 256">
  <defs>
    <linearGradient id="g" x1="28" y1="228" x2="228" y2="28" gradientUnits="userSpaceOnUse">
      <stop offset="0" stop-color="#00B368"/>
      <stop offset="0.55" stop-color="#00C776"/>
      <stop offset="1" stop-color="#39F2B0"/>
    </linearGradient>
    <filter id="glow" x="-40%" y="-40%" width="180%" height="180%">
      <feGaussianBlur stdDeviation="5" result="b"/>
      <feMerge><feMergeNode in="b"/><feMergeNode in="SourceGraphic"/></feMerge>
    </filter>
  </defs>

  <!-- N -->
  <path d="M57 194 C43 194 35 182 39 167 L64 72 C68 57 80 48 94 48 C105 48 113 54 120 65 L151 117 L169 61 C173 47 185 39 198 42 C213 45 220 57 216 72 L191 180 C188 194 176 204 162 204 C150 204 142 198 135 187 L104 135 L86 190 C82 202 70 194 57 194 Z"
        fill="url(#g)"/>

  <!-- Orbit -->
  <ellipse cx="128" cy="128" rx="105" ry="45"
           transform="rotate(-24 128 128)"
           fill="none" stroke="url(#g)" stroke-width="8" opacity="0.95"/>

  <!-- Nodes -->
  <circle cx="218" cy="76" r="13" fill="#00C776" filter="url(#glow)"/>
  <circle cx="49" cy="184" r="12" fill="#00C776" filter="url(#glow)"/>
  <circle cx="166" cy="111" r="7" fill="#8CFFD5"/>
</svg>